<?xml version='1.0' encoding='utf-8'?>
<svg xmlns="http://www.w3.org/2000/svg" enable-background="new 0 0 2214 1659.639" version="1.1" viewBox="0 0 2214 1659.639">
		<path d="m1159.2 1629.8c-134.01 0-272.17-37.984-411.52-113.25-12.181-6.5785-16.722-21.785-10.143-33.966 6.58-12.184 21.792-16.709 33.966-10.143 299.3 161.66 575.66 142.08 844.85-59.876 11.07-8.3103 26.785-6.0643 35.092 5.0088 8.3073 11.073 6.0645 26.785-5.0088 35.092-139.41 104.59-284.96 163.47-432.61 175.01-18.123 1.4166-36.347 2.1235-54.629 2.1235z"/>
	<path d="m39.78 764.75l2122.7-131.59c47.457 445.62-52.643 633.08-240.47 688.52-171.2 50.527-349.26 57.615-524.02-46.214-86.143-51.179-145.81-123.29-192.69-194.26l-111.23-14.099c-71.173 234.84-219.84 370.46-448.05 380.68-421.53 18.887-597.99-251.91-606.27-683.03z"/>
	<path d="m237.17 1213.6c141.65 24.198 287.73 34.726 422.98 0 134.22-34.461 238.9-130.56 333.68-226.37-34.987 174.41-210.45 308.75-457.44 347-144.04 22.308-251.39-22.657-299.22-120.63z" fill="#fff"/>
	<path d="m204.26 837.69c176.56-59.637 457.13-49.183 712.03-21.246 0 0-261.71 23.997-348.57 35.248-145.65 18.868-240.21 103.13-387.73 173.11-30.905 6.9215-39.748-35.375-39.393-98.191 0.2266-40.122 25.648-76.081 63.661-88.92z" fill="#fff"/>
	<path d="m1205.3 814.88c1.588-23.252 15.356-40.879 43.865-51.698 258.78-43.354 502.22-67.127 722.56-61.396 6.4066 0.1666 9.9869 7.9102 5.6072 12.589-5.9556 6.3618-17.272 10.392-34.172 11.992-128.3 0.1544-258.91 25.834-391.53 73.768-44.231 15.987-85.469 39.356-121.78 69.248-39.867 32.821-79.246 63.38-118.03 91.189-0.1991 0.0765-0.3979 0.1525-0.5967 0.2277-26.397 9.9893-56.22-1.8204-69.17-26.899-19.553-37.867-32.272-77.426-36.762-119.02z" fill="#fff"/>
	<path d="m1362.5 1147.5c-5.3496-6.0817-0.0154-15.519 7.9662-14.14 272.23 47.034 460.54 35.324 567.49-33.341l162.24-107.36c5.8391-3.8638 13.45 0.9634 12.555 7.9077-11.795 91.521-110.82 156.05-256.78 211.2-205.22 77.532-373.47 72.155-493.47-64.27z" fill="#fff"/>
	<path d="m541.61 218.01c7.7767-5.923 29.459-26.064 37.557-35.641 15.291-17.533 35.682-31.07 55.316-43.191 51.382-31.846 111.98-50.842 172.18-55.862 47.793-4.4989 93.711-0.9386 140.22 10.286 17.421 4.5643 41.592 8.7875 56.438 19.237 26.943 10.6 13.751 52.249-14.224 45.702-35.393-0.0444-70.186-14.241-106.89-11.86-50.427 3.4025-97.409 17.847-141.11 43.272-38.678 22.506-75.419 60.055-117.26 74.879-10.798 3.7868-26.307 11.9-36.393 14.084-28.931 6.2651-37.466-19.13-44.777-36.885-0.0314-0.0763-6.2664-8.355-1.0444-24.021z"/>
	<path d="m1336.9 52.891c98.718-65.317 303 14.1 382.04 162.1 5.067 9.4872 0.4943 21.385-9.7161 24.766-34.849 11.538-72.467-4.4156-112.8-47.313-0.6598-0.7019-1.2692-1.478-1.8035-2.2796-36.664-55.003-83.502-91.181-144.07-101.95-3.8615-0.6863-7.8705 0.0458-11.274 1.9944-35.741 20.463-69.627 14.209-102.37-8.4638-10.121-7.0083-10.269-22.062-2e-3 -28.856z"/>
			<path d="m409.4 711.54l0.4073-0.0314c0.4701-2.2872 0.9711-4.5432 1.4729-6.799-0.6582 2.2559-1.2851 4.5431-1.8802 6.8304zm335.34-266.92c-163.9 5.2322-230.66 117.12-239.12 261.62l443.88-24.408c-0.4074-145.07-59.906-241.85-204.75-237.21zm8.3653 168.69c-35.186 0-63.728-21.995-63.728-49.097s28.543-49.097 63.728-49.097c35.186 0 63.698 21.995 63.698 49.097s-28.512 49.097-63.698 49.097z"/>
			<path d="m753.11 515.13c35.186 0 63.698 21.995 63.698 49.097 0 27.102-28.512 49.097-63.698 49.097-35.186 0-63.729-21.995-63.729-49.097-1e-4 -27.102 28.543-49.097 63.729-49.097z" fill="#fff"/>
			<path d="m1010.3 678.49l-60.752 3.3525c-0.4074-145.07-59.906-241.85-204.75-237.21-163.9 5.2322-230.66 117.12-239.12 261.62l-95.813 5.2637c0.4701-2.2872 0.9711-4.5432 1.4729-6.799 55.05-199.24 175.8-306.8 350.63-311.5 3.4468-0.0937 6.8615-0.1564 10.214-0.1564 152.74 1e-4 232.8 96.032 238.12 285.43z" fill="#fff"/>
				<path d="m1045 694.69c-0.5641-104.59-22.496-186.36-65.139-243.07-46.434-61.724-116.34-93.024-207.73-93.024-3.6656 0-7.3942 0.0627-11.154 0.1564-97.034 2.6321-179.88 34.747-246.14 95.468-68.334 62.601-116.96 154.06-144.56 271.9l-5.2635 22.371 585.22-32.178 94.872-5.2324-0.0938-16.386zm-95.5-12.846l-443.88 24.408-95.813 5.2637-0.4073 0.0314c0.5951-2.2874 1.222-4.5745 1.8802-6.8303 55.05-199.24 175.8-306.8 350.63-311.5 3.4468-0.0937 6.8615-0.1564 10.214-0.1564 152.74 0 232.8 96.032 238.12 285.43l-60.752 3.3525z"/>
				<path d="m1579.7 663.54c5.9845-7.0811 9.4309-15.509 9.4309-24.502 0-25.536-27.698-46.246-61.88-46.246s-61.88 20.71-61.88 46.246c0 11.311 5.4517 21.65 14.475 29.64l-155.41 8.0209c17.076-89.891 73.849-146.13 195.76-152.02 80.773-3.9165 146.76 47.248 212.87 131l-153.37 7.8642z"/>
				<path d="m1589.1 639.04c0 8.9922-3.4464 17.42-9.4309 24.502l-99.854 5.1384c-9.0236-7.9897-14.475-18.329-14.475-29.64 0-25.536 27.698-46.246 61.88-46.246s61.88 20.71 61.88 46.246z" fill="#fff"/>
				<path d="m1807.1 651.86l-74.006 3.8226c-66.11-83.75-132.09-134.91-212.87-131-121.91 5.8904-178.69 62.131-195.76 152.02l-64.23 3.2898c21.556-138.46 97.41-210.17 225.65-213.15 2.8823-0.0623 5.7649-0.0937 8.6476-0.0937 107.25 0 201.78 46.81 281.86 139.36 10.935 14.444 21.18 29.734 30.705 45.744z" fill="#fff"/>
				<path d="m1853.7 657.25c-98.162-150.42-222.14-225.15-368.59-221.74-73.223 1.7234-132.6 24.47-176.49 67.677-44.742 44.021-72.345 108.47-82.058 191.59l-2.1307 18.423 644.15-33.18-14.883-22.778zm-46.621-5.3892l-74.006 3.8226-153.37 7.8643-99.854 5.1384-155.41 8.0209-64.23 3.2898c21.556-138.46 97.41-210.17 225.65-213.15 2.8823-0.0623 5.7649-0.0937 8.6476-0.0937 107.25 0 201.78 46.81 281.86 139.36 12.188 14.099 24.063 29.264 35.593 45.494l-4.8877 0.2505z"/>
</svg>